<?xml version="1.0" encoding="utf-8"?>
<Project name="Media_Time_Test_Project1" themeId="0" version="65540" templateID="SimpleProjectTemplate">
  <MediaItems>
    <MediaItem id="1" filePath="C:\Users\SeanPM\Desktop\SNU\M3V5\2D\HTML Test references\MediaTimeTest\Media_Time_Test_Frame_Zero.png" arWidth="768" arHeight="432" duration="0" songTitle="" songArtist="" songAlbum="" songCopyrightUrl="" songArtistUrl="" songAudioFileUrl="" stabilizationMode="0" mediaItemType="2" />
    <MediaItem id="2" filePath="C:\Users\SeanPM\Desktop\SNU\M3V5\2D\HTML Test references\MediaTimeTest\Media_Time_Test_Frame_One.png" arWidth="96" arHeight="54" duration="0" songTitle="" songArtist="" songAlbum="" songCopyrightUrl="" songArtistUrl="" songAudioFileUrl="" stabilizationMode="0" mediaItemType="2" />
    <MediaItem id="3" filePath="C:\Users\SeanPM\Desktop\SNU\M3V5\2D\HTML Test references\MediaTimeTest\Media_Time_Test_Frame_Two.png" arWidth="96" arHeight="54" duration="0" songTitle="" songArtist="" songAlbum="" songCopyrightUrl="" songArtistUrl="" songAudioFileUrl="" stabilizationMode="0" mediaItemType="2" />
    <MediaItem id="4" filePath="C:\Users\SeanPM\Desktop\SNU\M3V5\2D\HTML Test references\MediaTimeTest\Media_Time_Test_Frame_Three.png" arWidth="96" arHeight="54" duration="0" songTitle="" songArtist="" songAlbum="" songCopyrightUrl="" songArtistUrl="" songAudioFileUrl="" stabilizationMode="0" mediaItemType="2" />
    <MediaItem id="5" filePath="C:\Users\SeanPM\Desktop\SNU\M3V5\2D\HTML Test references\MediaTimeTest\Media_Time_Test_Frame_Four.png" arWidth="96" arHeight="54" duration="0" songTitle="" songArtist="" songAlbum="" songCopyrightUrl="" songArtistUrl="" songAudioFileUrl="" stabilizationMode="0" mediaItemType="2" />
    <MediaItem id="6" filePath="C:\Users\SeanPM\Desktop\SNU\M3V5\2D\HTML Test references\MediaTimeTest\Media_Time_Test_Frame_Five.png" arWidth="96" arHeight="54" duration="0" songTitle="" songArtist="" songAlbum="" songCopyrightUrl="" songArtistUrl="" songAudioFileUrl="" stabilizationMode="0" mediaItemType="2" />
    <MediaItem id="7" filePath="C:\Users\SeanPM\Desktop\SNU\M3V5\2D\HTML Test references\MediaTimeTest\Media_Time_Test_Frame_Six.png" arWidth="96" arHeight="54" duration="0" songTitle="" songArtist="" songAlbum="" songCopyrightUrl="" songArtistUrl="" songAudioFileUrl="" stabilizationMode="0" mediaItemType="2" />
    <MediaItem id="8" filePath="C:\Users\SeanPM\Desktop\SNU\M3V5\2D\HTML Test references\MediaTimeTest\Media_Time_Test_Frame_Seven.png" arWidth="96" arHeight="54" duration="0" songTitle="" songArtist="" songAlbum="" songCopyrightUrl="" songArtistUrl="" songAudioFileUrl="" stabilizationMode="0" mediaItemType="2" />
    <MediaItem id="9" filePath="C:\Users\SeanPM\Desktop\SNU\M3V5\2D\HTML Test references\MediaTimeTest\Media_Time_Test_Frame_Eight.png" arWidth="96" arHeight="54" duration="0" songTitle="" songArtist="" songAlbum="" songCopyrightUrl="" songArtistUrl="" songAudioFileUrl="" stabilizationMode="0" mediaItemType="2" />
    <MediaItem id="10" filePath="C:\Users\SeanPM\Desktop\SNU\M3V5\2D\HTML Test references\MediaTimeTest\Media_Time_Test_Frame_Nine.png" arWidth="96" arHeight="54" duration="0" songTitle="" songArtist="" songAlbum="" songCopyrightUrl="" songArtistUrl="" songAudioFileUrl="" stabilizationMode="0" mediaItemType="2" />
    <MediaItem id="11" filePath="C:\Users\SeanPM\Desktop\SNU\M3V5\2D\HTML Test references\MediaTimeTest\Media_Time_Test_Frame_Ten.png" arWidth="96" arHeight="54" duration="0" songTitle="" songArtist="" songAlbum="" songCopyrightUrl="" songArtistUrl="" songAudioFileUrl="" stabilizationMode="0" mediaItemType="2" />
    <MediaItem id="12" filePath="C:\Users\SeanPM\Desktop\SNU\M3V5\2D\HTML Test references\MediaTimeTest\Media_Time_Test_Frame_Eleven.png" arWidth="1920" arHeight="1080" duration="0" songTitle="" songArtist="" songAlbum="" songCopyrightUrl="" songArtistUrl="" songAudioFileUrl="" stabilizationMode="0" mediaItemType="2" />
    <MediaItem id="13" filePath="C:\Users\SeanPM\Desktop\SNU\M3V5\2D\HTML Test references\MediaTimeTest\Media_Time_Test_Frame_Twelve.png" arWidth="1920" arHeight="1080" duration="0" songTitle="" songArtist="" songAlbum="" songCopyrightUrl="" songArtistUrl="" songAudioFileUrl="" stabilizationMode="0" mediaItemType="2" />
    <MediaItem id="14" filePath="C:\Users\SeanPM\Desktop\SNU\M3V5\2D\HTML Test references\MediaTimeTest\Media_Time_Test_Frame_Thirteen.png" arWidth="1920" arHeight="1080" duration="0" songTitle="" songArtist="" songAlbum="" songCopyrightUrl="" songArtistUrl="" songAudioFileUrl="" stabilizationMode="0" mediaItemType="2" />
    <MediaItem id="15" filePath="C:\Users\SeanPM\Desktop\SNU\M3V5\2D\HTML Test references\MediaTimeTest\Media_Time_Test_Frame_Fourteen.png" arWidth="1920" arHeight="1080" duration="0" songTitle="" songArtist="" songAlbum="" songCopyrightUrl="" songArtistUrl="" songAudioFileUrl="" stabilizationMode="0" mediaItemType="2" />
    <MediaItem id="16" filePath="C:\Users\SeanPM\Desktop\SNU\M3V5\2D\HTML Test references\MediaTimeTest\Media_Time_Test_Frame_Fifteen.png" arWidth="1920" arHeight="1080" duration="0" songTitle="" songArtist="" songAlbum="" songCopyrightUrl="" songArtistUrl="" songAudioFileUrl="" stabilizationMode="0" mediaItemType="2" />
    <MediaItem id="17" filePath="C:\Users\SeanPM\Desktop\SNU\M3V5\2D\HTML Test references\MediaTimeTest\Media_Time_Test_Frame_Sixteen.png" arWidth="1920" arHeight="1080" duration="0" songTitle="" songArtist="" songAlbum="" songCopyrightUrl="" songArtistUrl="" songAudioFileUrl="" stabilizationMode="0" mediaItemType="2" />
    <MediaItem id="18" filePath="C:\Users\SeanPM\Desktop\SNU\M3V5\2D\HTML Test references\MediaTimeTest\Media_Time_Test_Frame_Seventeen.png" arWidth="1920" arHeight="1080" duration="0" songTitle="" songArtist="" songAlbum="" songCopyrightUrl="" songArtistUrl="" songAudioFileUrl="" stabilizationMode="0" mediaItemType="2" />
    <MediaItem id="19" filePath="C:\Users\SeanPM\Desktop\SNU\M3V5\2D\HTML Test references\MediaTimeTest\Media_Time_Test_Frame_Eighteen.png" arWidth="1920" arHeight="1080" duration="0" songTitle="" songArtist="" songAlbum="" songCopyrightUrl="" songArtistUrl="" songAudioFileUrl="" stabilizationMode="0" mediaItemType="2" />
    <MediaItem id="20" filePath="C:\Users\SeanPM\Desktop\SNU\M3V5\2D\HTML Test references\MediaTimeTest\Media_Time_Test_Frame_Nineteen.png" arWidth="1920" arHeight="1080" duration="0" songTitle="" songArtist="" songAlbum="" songCopyrightUrl="" songArtistUrl="" songAudioFileUrl="" stabilizationMode="0" mediaItemType="2" />
    <MediaItem id="21" filePath="C:\Users\SeanPM\Desktop\SNU\M3V5\2D\HTML Test references\MediaTimeTest\Media_Time_Test_Frame_Twenty.png" arWidth="1920" arHeight="1080" duration="0" songTitle="" songArtist="" songAlbum="" songCopyrightUrl="" songArtistUrl="" songAudioFileUrl="" stabilizationMode="0" mediaItemType="2" />
    <MediaItem id="22" filePath="C:\Users\SeanPM\Desktop\SNU\M3V5\2D\HTML Test references\MediaTimeTest\Media_Time_Test_Frame_TwentyOne.png" arWidth="1920" arHeight="1080" duration="0" songTitle="" songArtist="" songAlbum="" songCopyrightUrl="" songArtistUrl="" songAudioFileUrl="" stabilizationMode="0" mediaItemType="2" />
    <MediaItem id="23" filePath="C:\Users\SeanPM\Desktop\SNU\M3V5\2D\HTML Test references\MediaTimeTest\Media_Time_Test_Frame_TwentyTwo.png" arWidth="1920" arHeight="1080" duration="0" songTitle="" songArtist="" songAlbum="" songCopyrightUrl="" songArtistUrl="" songAudioFileUrl="" stabilizationMode="0" mediaItemType="2" />
    <MediaItem id="24" filePath="C:\Users\SeanPM\Desktop\SNU\M3V5\2D\HTML Test references\MediaTimeTest\Media_Time_Test_Frame_TwentyThree.png" arWidth="1920" arHeight="1080" duration="0" songTitle="" songArtist="" songAlbum="" songCopyrightUrl="" songArtistUrl="" songAudioFileUrl="" stabilizationMode="0" mediaItemType="2" />
    <MediaItem id="25" filePath="C:\Users\SeanPM\Desktop\SNU\M3V5\2D\HTML Test references\MediaTimeTest\Media_Time_Test_Frame_TwentyFour.png" arWidth="1920" arHeight="1080" duration="0" songTitle="" songArtist="" songAlbum="" songCopyrightUrl="" songArtistUrl="" songAudioFileUrl="" stabilizationMode="0" mediaItemType="2" />
    <MediaItem id="26" filePath="C:\Users\SeanPM\Desktop\SNU\M3V5\2D\HTML Test references\MediaTimeTest\Media_Time_Test_Frame_TwentyFive.png" arWidth="1920" arHeight="1080" duration="0" songTitle="" songArtist="" songAlbum="" songCopyrightUrl="" songArtistUrl="" songAudioFileUrl="" stabilizationMode="0" mediaItemType="2" />
    <MediaItem id="27" filePath="C:\Users\SeanPM\Desktop\SNU\M3V5\2D\HTML Test references\MediaTimeTest\Media_Time_Test_Frame_TwentySix.png" arWidth="1920" arHeight="1080" duration="0" songTitle="" songArtist="" songAlbum="" songCopyrightUrl="" songArtistUrl="" songAudioFileUrl="" stabilizationMode="0" mediaItemType="2" />
    <MediaItem id="28" filePath="C:\Users\SeanPM\Desktop\SNU\M3V5\2D\HTML Test references\MediaTimeTest\Media_Time_Test_Frame_TwentySeven.png" arWidth="1920" arHeight="1080" duration="0" songTitle="" songArtist="" songAlbum="" songCopyrightUrl="" songArtistUrl="" songAudioFileUrl="" stabilizationMode="0" mediaItemType="2" />
    <MediaItem id="29" filePath="C:\Users\SeanPM\Desktop\SNU\M3V5\2D\HTML Test references\MediaTimeTest\Media_Time_Test_Frame_TwentyEight.png" arWidth="1920" arHeight="1080" duration="0" songTitle="" songArtist="" songAlbum="" songCopyrightUrl="" songArtistUrl="" songAudioFileUrl="" stabilizationMode="0" mediaItemType="2" />
    <MediaItem id="30" filePath="C:\Users\SeanPM\Desktop\SNU\M3V5\2D\HTML Test references\MediaTimeTest\Media_Time_Test_Frame_TwentyNine.png" arWidth="1920" arHeight="1080" duration="0" songTitle="" songArtist="" songAlbum="" songCopyrightUrl="" songArtistUrl="" songAudioFileUrl="" stabilizationMode="0" mediaItemType="2" />
    <MediaItem id="31" filePath="C:\Users\SeanPM\Desktop\SNU\M3V5\2D\HTML Test references\MediaTimeTest\Media_Time_Test_Frame_Thirty.png" arWidth="96" arHeight="54" duration="0" songTitle="" songArtist="" songAlbum="" songCopyrightUrl="" songArtistUrl="" songAudioFileUrl="" stabilizationMode="0" mediaItemType="2" />
    <MediaItem id="32" filePath="C:\Users\SeanPM\Desktop\SNU\M3V5\2D\HTML Test references\MediaTimeTest\Media_Time_Test_Frame_ThirtyOne.png" arWidth="96" arHeight="54" duration="0" songTitle="" songArtist="" songAlbum="" songCopyrightUrl="" songArtistUrl="" songAudioFileUrl="" stabilizationMode="0" mediaItemType="2" />
    <MediaItem id="33" filePath="C:\Users\SeanPM\Desktop\SNU\M3V5\2D\HTML Test references\MediaTimeTest\Media_Time_Test_Frame_ThirtyTwo.png" arWidth="96" arHeight="54" duration="0" songTitle="" songArtist="" songAlbum="" songCopyrightUrl="" songArtistUrl="" songAudioFileUrl="" stabilizationMode="0" mediaItemType="2" />
    <MediaItem id="34" filePath="C:\Users\SeanPM\Desktop\SNU\M3V5\2D\HTML Test references\MediaTimeTest\Media_Time_Test_Frame_ThirtyThree.png" arWidth="96" arHeight="54" duration="0" songTitle="" songArtist="" songAlbum="" songCopyrightUrl="" songArtistUrl="" songAudioFileUrl="" stabilizationMode="0" mediaItemType="2" />
    <MediaItem id="35" filePath="C:\Users\SeanPM\Desktop\SNU\M3V5\2D\HTML Test references\MediaTimeTest\Media_Time_Test_Frame_ThirtyFour.png" arWidth="96" arHeight="54" duration="0" songTitle="" songArtist="" songAlbum="" songCopyrightUrl="" songArtistUrl="" songAudioFileUrl="" stabilizationMode="0" mediaItemType="2" />
    <MediaItem id="36" filePath="C:\Users\SeanPM\Desktop\SNU\M3V5\2D\HTML Test references\MediaTimeTest\Media_Time_Test_Frame_ThirtyFive.png" arWidth="96" arHeight="54" duration="0" songTitle="" songArtist="" songAlbum="" songCopyrightUrl="" songArtistUrl="" songAudioFileUrl="" stabilizationMode="0" mediaItemType="2" />
    <MediaItem id="37" filePath="C:\Users\SeanPM\Desktop\SNU\M3V5\2D\HTML Test references\MediaTimeTest\Media_Time_Test_Frame_ThirtySix.png" arWidth="96" arHeight="54" duration="0" songTitle="" songArtist="" songAlbum="" songCopyrightUrl="" songArtistUrl="" songAudioFileUrl="" stabilizationMode="0" mediaItemType="2" />
    <MediaItem id="38" filePath="C:\Users\SeanPM\Desktop\SNU\M3V5\2D\HTML Test references\MediaTimeTest\Media_Time_Test_Frame_ThirtySeven.png" arWidth="96" arHeight="54" duration="0" songTitle="" songArtist="" songAlbum="" songCopyrightUrl="" songArtistUrl="" songAudioFileUrl="" stabilizationMode="0" mediaItemType="2" />
    <MediaItem id="39" filePath="C:\Users\SeanPM\Desktop\SNU\M3V5\2D\HTML Test references\MediaTimeTest\Media_Time_Test_Frame_ThirtyEight.png" arWidth="96" arHeight="54" duration="0" songTitle="" songArtist="" songAlbum="" songCopyrightUrl="" songArtistUrl="" songAudioFileUrl="" stabilizationMode="0" mediaItemType="2" />
    <MediaItem id="40" filePath="C:\Users\SeanPM\Desktop\SNU\M3V5\2D\HTML Test references\MediaTimeTest\Media_Time_Test_Frame_ThirtyNine.png" arWidth="96" arHeight="54" duration="0" songTitle="" songArtist="" songAlbum="" songCopyrightUrl="" songArtistUrl="" songAudioFileUrl="" stabilizationMode="0" mediaItemType="2" />
    <MediaItem id="41" filePath="C:\Users\SeanPM\Desktop\SNU\M3V5\2D\HTML Test references\MediaTimeTest\Media_Time_Test_Frame_Forty.png" arWidth="96" arHeight="54" duration="0" songTitle="" songArtist="" songAlbum="" songCopyrightUrl="" songArtistUrl="" songAudioFileUrl="" stabilizationMode="0" mediaItemType="2" />
  </MediaItems>
  <Extents>
    <ImageClip extentID="5" gapBefore="0" mediaItemID="1" duration="1">
      <Effects />
      <Transitions />
      <BoundProperties>
        <BoundPropertyInt Name="rotateStepNinety" Value="0" />
      </BoundProperties>
    </ImageClip>
    <ImageClip extentID="6" gapBefore="0" mediaItemID="2" duration="1">
      <Effects />
      <Transitions />
      <BoundProperties>
        <BoundPropertyInt Name="rotateStepNinety" Value="0" />
      </BoundProperties>
    </ImageClip>
    <ImageClip extentID="7" gapBefore="0" mediaItemID="3" duration="1">
      <Effects />
      <Transitions />
      <BoundProperties>
        <BoundPropertyInt Name="rotateStepNinety" Value="0" />
      </BoundProperties>
    </ImageClip>
    <ImageClip extentID="8" gapBefore="0" mediaItemID="4" duration="1">
      <Effects />
      <Transitions />
      <BoundProperties>
        <BoundPropertyInt Name="rotateStepNinety" Value="0" />
      </BoundProperties>
    </ImageClip>
    <ImageClip extentID="9" gapBefore="0" mediaItemID="5" duration="1">
      <Effects />
      <Transitions />
      <BoundProperties>
        <BoundPropertyInt Name="rotateStepNinety" Value="0" />
      </BoundProperties>
    </ImageClip>
    <ImageClip extentID="10" gapBefore="0" mediaItemID="6" duration="1">
      <Effects />
      <Transitions />
      <BoundProperties>
        <BoundPropertyInt Name="rotateStepNinety" Value="0" />
      </BoundProperties>
    </ImageClip>
    <ImageClip extentID="11" gapBefore="0" mediaItemID="7" duration="1">
      <Effects />
      <Transitions />
      <BoundProperties>
        <BoundPropertyInt Name="rotateStepNinety" Value="0" />
      </BoundProperties>
    </ImageClip>
    <ImageClip extentID="12" gapBefore="0" mediaItemID="8" duration="1">
      <Effects />
      <Transitions />
      <BoundProperties>
        <BoundPropertyInt Name="rotateStepNinety" Value="0" />
      </BoundProperties>
    </ImageClip>
    <ImageClip extentID="13" gapBefore="0" mediaItemID="9" duration="1">
      <Effects />
      <Transitions />
      <BoundProperties>
        <BoundPropertyInt Name="rotateStepNinety" Value="0" />
      </BoundProperties>
    </ImageClip>
    <ImageClip extentID="14" gapBefore="0" mediaItemID="10" duration="1">
      <Effects />
      <Transitions />
      <BoundProperties>
        <BoundPropertyInt Name="rotateStepNinety" Value="0" />
      </BoundProperties>
    </ImageClip>
    <ImageClip extentID="15" gapBefore="0" mediaItemID="11" duration="1">
      <Effects />
      <Transitions />
      <BoundProperties>
        <BoundPropertyInt Name="rotateStepNinety" Value="0" />
      </BoundProperties>
    </ImageClip>
    <ImageClip extentID="16" gapBefore="0" mediaItemID="12" duration="1">
      <Effects />
      <Transitions />
      <BoundProperties>
        <BoundPropertyInt Name="rotateStepNinety" Value="0" />
      </BoundProperties>
    </ImageClip>
    <ImageClip extentID="17" gapBefore="0" mediaItemID="13" duration="1">
      <Effects />
      <Transitions />
      <BoundProperties>
        <BoundPropertyInt Name="rotateStepNinety" Value="0" />
      </BoundProperties>
    </ImageClip>
    <ImageClip extentID="18" gapBefore="0" mediaItemID="14" duration="1">
      <Effects />
      <Transitions />
      <BoundProperties>
        <BoundPropertyInt Name="rotateStepNinety" Value="0" />
      </BoundProperties>
    </ImageClip>
    <ImageClip extentID="19" gapBefore="0" mediaItemID="15" duration="1">
      <Effects />
      <Transitions />
      <BoundProperties>
        <BoundPropertyInt Name="rotateStepNinety" Value="0" />
      </BoundProperties>
    </ImageClip>
    <ImageClip extentID="20" gapBefore="0" mediaItemID="16" duration="1">
      <Effects />
      <Transitions />
      <BoundProperties>
        <BoundPropertyInt Name="rotateStepNinety" Value="0" />
      </BoundProperties>
    </ImageClip>
    <ImageClip extentID="21" gapBefore="0" mediaItemID="17" duration="1">
      <Effects />
      <Transitions />
      <BoundProperties>
        <BoundPropertyInt Name="rotateStepNinety" Value="0" />
      </BoundProperties>
    </ImageClip>
    <ImageClip extentID="22" gapBefore="0" mediaItemID="18" duration="1">
      <Effects />
      <Transitions />
      <BoundProperties>
        <BoundPropertyInt Name="rotateStepNinety" Value="0" />
      </BoundProperties>
    </ImageClip>
    <ImageClip extentID="23" gapBefore="0" mediaItemID="19" duration="1">
      <Effects />
      <Transitions />
      <BoundProperties>
        <BoundPropertyInt Name="rotateStepNinety" Value="0" />
      </BoundProperties>
    </ImageClip>
    <ImageClip extentID="24" gapBefore="0" mediaItemID="20" duration="1">
      <Effects />
      <Transitions />
      <BoundProperties>
        <BoundPropertyInt Name="rotateStepNinety" Value="0" />
      </BoundProperties>
    </ImageClip>
    <ImageClip extentID="25" gapBefore="0" mediaItemID="21" duration="1">
      <Effects />
      <Transitions />
      <BoundProperties>
        <BoundPropertyInt Name="rotateStepNinety" Value="0" />
      </BoundProperties>
    </ImageClip>
    <ImageClip extentID="26" gapBefore="0" mediaItemID="22" duration="1">
      <Effects />
      <Transitions />
      <BoundProperties>
        <BoundPropertyInt Name="rotateStepNinety" Value="0" />
      </BoundProperties>
    </ImageClip>
    <ImageClip extentID="27" gapBefore="0" mediaItemID="23" duration="1">
      <Effects />
      <Transitions />
      <BoundProperties>
        <BoundPropertyInt Name="rotateStepNinety" Value="0" />
      </BoundProperties>
    </ImageClip>
    <ImageClip extentID="28" gapBefore="0" mediaItemID="24" duration="1">
      <Effects />
      <Transitions />
      <BoundProperties>
        <BoundPropertyInt Name="rotateStepNinety" Value="0" />
      </BoundProperties>
    </ImageClip>
    <ImageClip extentID="29" gapBefore="0" mediaItemID="25" duration="1">
      <Effects />
      <Transitions />
      <BoundProperties>
        <BoundPropertyInt Name="rotateStepNinety" Value="0" />
      </BoundProperties>
    </ImageClip>
    <ImageClip extentID="30" gapBefore="0" mediaItemID="26" duration="1">
      <Effects />
      <Transitions />
      <BoundProperties>
        <BoundPropertyInt Name="rotateStepNinety" Value="0" />
      </BoundProperties>
    </ImageClip>
    <ImageClip extentID="31" gapBefore="0" mediaItemID="27" duration="1">
      <Effects />
      <Transitions />
      <BoundProperties>
        <BoundPropertyInt Name="rotateStepNinety" Value="0" />
      </BoundProperties>
    </ImageClip>
    <ImageClip extentID="32" gapBefore="0" mediaItemID="28" duration="1">
      <Effects />
      <Transitions />
      <BoundProperties>
        <BoundPropertyInt Name="rotateStepNinety" Value="0" />
      </BoundProperties>
    </ImageClip>
    <ImageClip extentID="33" gapBefore="0" mediaItemID="29" duration="1">
      <Effects />
      <Transitions />
      <BoundProperties>
        <BoundPropertyInt Name="rotateStepNinety" Value="0" />
      </BoundProperties>
    </ImageClip>
    <ImageClip extentID="34" gapBefore="0" mediaItemID="30" duration="1">
      <Effects />
      <Transitions />
      <BoundProperties>
        <BoundPropertyInt Name="rotateStepNinety" Value="0" />
      </BoundProperties>
    </ImageClip>
    <ImageClip extentID="35" gapBefore="0" mediaItemID="31" duration="1">
      <Effects />
      <Transitions />
      <BoundProperties>
        <BoundPropertyInt Name="rotateStepNinety" Value="0" />
      </BoundProperties>
    </ImageClip>
    <ImageClip extentID="36" gapBefore="0" mediaItemID="32" duration="1">
      <Effects />
      <Transitions />
      <BoundProperties>
        <BoundPropertyInt Name="rotateStepNinety" Value="0" />
      </BoundProperties>
    </ImageClip>
    <ImageClip extentID="37" gapBefore="0" mediaItemID="33" duration="1">
      <Effects />
      <Transitions />
      <BoundProperties>
        <BoundPropertyInt Name="rotateStepNinety" Value="0" />
      </BoundProperties>
    </ImageClip>
    <ImageClip extentID="38" gapBefore="0" mediaItemID="34" duration="1">
      <Effects />
      <Transitions />
      <BoundProperties>
        <BoundPropertyInt Name="rotateStepNinety" Value="0" />
      </BoundProperties>
    </ImageClip>
    <ImageClip extentID="39" gapBefore="0" mediaItemID="35" duration="1">
      <Effects />
      <Transitions />
      <BoundProperties>
        <BoundPropertyInt Name="rotateStepNinety" Value="0" />
      </BoundProperties>
    </ImageClip>
    <ImageClip extentID="40" gapBefore="0" mediaItemID="36" duration="1">
      <Effects />
      <Transitions />
      <BoundProperties>
        <BoundPropertyInt Name="rotateStepNinety" Value="0" />
      </BoundProperties>
    </ImageClip>
    <ImageClip extentID="41" gapBefore="0" mediaItemID="37" duration="1">
      <Effects />
      <Transitions />
      <BoundProperties>
        <BoundPropertyInt Name="rotateStepNinety" Value="0" />
      </BoundProperties>
    </ImageClip>
    <ImageClip extentID="42" gapBefore="0" mediaItemID="38" duration="1">
      <Effects />
      <Transitions />
      <BoundProperties>
        <BoundPropertyInt Name="rotateStepNinety" Value="0" />
      </BoundProperties>
    </ImageClip>
    <ImageClip extentID="43" gapBefore="0" mediaItemID="39" duration="1">
      <Effects />
      <Transitions />
      <BoundProperties>
        <BoundPropertyInt Name="rotateStepNinety" Value="0" />
      </BoundProperties>
    </ImageClip>
    <ImageClip extentID="44" gapBefore="0" mediaItemID="40" duration="1">
      <Effects />
      <Transitions />
      <BoundProperties>
        <BoundPropertyInt Name="rotateStepNinety" Value="0" />
      </BoundProperties>
    </ImageClip>
    <ImageClip extentID="45" gapBefore="0" mediaItemID="41" duration="1">
      <Effects />
      <Transitions />
      <BoundProperties>
        <BoundPropertyInt Name="rotateStepNinety" Value="0" />
      </BoundProperties>
    </ImageClip>
    <ExtentSelector extentID="1" gapBefore="0" primaryTrack="true">
      <Effects />
      <Transitions />
      <BoundProperties />
      <ExtentRefs>
        <ExtentRef id="5" />
        <ExtentRef id="6" />
        <ExtentRef id="7" />
        <ExtentRef id="8" />
        <ExtentRef id="9" />
        <ExtentRef id="10" />
        <ExtentRef id="11" />
        <ExtentRef id="12" />
        <ExtentRef id="13" />
        <ExtentRef id="14" />
        <ExtentRef id="15" />
        <ExtentRef id="16" />
        <ExtentRef id="17" />
        <ExtentRef id="18" />
        <ExtentRef id="19" />
        <ExtentRef id="20" />
        <ExtentRef id="21" />
        <ExtentRef id="22" />
        <ExtentRef id="23" />
        <ExtentRef id="24" />
        <ExtentRef id="25" />
        <ExtentRef id="26" />
        <ExtentRef id="27" />
        <ExtentRef id="28" />
        <ExtentRef id="29" />
        <ExtentRef id="30" />
        <ExtentRef id="31" />
        <ExtentRef id="32" />
        <ExtentRef id="33" />
        <ExtentRef id="34" />
        <ExtentRef id="35" />
        <ExtentRef id="36" />
        <ExtentRef id="37" />
        <ExtentRef id="38" />
        <ExtentRef id="39" />
        <ExtentRef id="40" />
        <ExtentRef id="41" />
        <ExtentRef id="42" />
        <ExtentRef id="43" />
        <ExtentRef id="44" />
        <ExtentRef id="45" />
      </ExtentRefs>
    </ExtentSelector>
    <ExtentSelector extentID="2" gapBefore="0" primaryTrack="false">
      <Effects />
      <Transitions />
      <BoundProperties />
      <ExtentRefs />
    </ExtentSelector>
    <ExtentSelector extentID="3" gapBefore="0" primaryTrack="false">
      <Effects />
      <Transitions />
      <BoundProperties />
      <ExtentRefs />
    </ExtentSelector>
    <ExtentSelector extentID="4" gapBefore="0" primaryTrack="false">
      <Effects />
      <Transitions />
      <BoundProperties />
      <ExtentRefs />
    </ExtentSelector>
  </Extents>
  <BoundPlaceholders>
    <BoundPlaceholder placeholderID="SingleExtentView" extentID="0" />
    <BoundPlaceholder placeholderID="Main" extentID="1" />
    <BoundPlaceholder placeholderID="SoundTrack" extentID="2" />
    <BoundPlaceholder placeholderID="Narration" extentID="3" />
    <BoundPlaceholder placeholderID="Text" extentID="4" />
  </BoundPlaceholders>
  <BoundProperties>
    <BoundPropertyFloatSet Name="AspectRatio">
      <BoundPropertyFloatElement Value="1.7777776718139648" />
    </BoundPropertyFloatSet>
    <BoundPropertyFloat Name="DuckedNarrationAndSoundTrackMix" Value="0.5" />
    <BoundPropertyFloat Name="DuckedVideoAndNarrationMix" Value="0.5" />
    <BoundPropertyFloat Name="DuckedVideoAndSoundTrackMix" Value="0.5" />
    <BoundPropertyFloat Name="SoundTrackMix" Value="0.5" />
  </BoundProperties>
  <ThemeOperationLog themeID="0">
    <MonolithicThemeOperations />
  </ThemeOperationLog>
  <AudioDuckingProperties emphasisPlaceholderID="Narration" />
</Project>